<svg width="56" height="56" viewBox="0 0 56 56" fill="none" xmlns="http://www.w3.org/2000/svg">
<path d="M19.7383 41.1133C21.3672 41.1133 24.6602 39.5312 27.1328 37.7734C35.3945 37.9258 41.5703 33.1445 41.5703 26.8867C41.5703 20.8398 35.5352 15.9766 28 15.9766C20.4648 15.9766 14.4297 20.8398 14.4297 26.8867C14.4297 30.7305 16.832 34.1758 20.5 35.957C19.9961 36.918 19.0938 38.2305 18.5898 38.8984C17.8516 39.8828 18.3555 41.1133 19.7383 41.1133ZM21.1328 38.7344C21.0039 38.793 20.9453 38.7109 21.0391 38.5938C21.6367 37.8438 22.5273 36.6836 22.9609 35.875C23.3125 35.2305 23.1836 34.668 22.4336 34.3164C18.8594 32.6289 16.7852 29.957 16.7852 26.8867C16.7852 22.1641 21.7539 18.3203 28 18.3203C34.2461 18.3203 39.2148 22.1641 39.2148 26.8867C39.2148 31.6094 34.2461 35.4531 28 35.4531C27.7773 35.4531 27.4609 35.4414 27.0391 35.4297C26.5352 35.4297 26.1602 35.582 25.6914 35.9453C24.2852 36.9883 22.1875 38.3125 21.1328 38.7344Z" fill="#6FA826"/>
<rect x="0.5" y="0.5" width="55" height="55" rx="27.5" stroke="white"/>
</svg>
